<svg xmlns="http://www.w3.org/2000/svg" viewBox="70 344 110 103">
  <g fill="#FFFFFF">
    <path d="M100.602,409.582H83.858c2.217,7.605,6.331,14.422,12.354,20.445c9.602,9.602,21.148,14.398,34.65,14.398
        c2.699,0,5.314-0.201,7.854-0.584c10.17-1.535,19.074-6.133,26.703-13.814c6.062-6.023,10.205-12.84,12.439-20.445h-6.795h-9.936
        H100.602z"/>
        <path d="M179.102,386.84c0.322,1.922,0.541,3.884,0.641,5.896h-6.871H97.596h-5.215H81.985
                c0.099-2.012,0.316-3.974,0.637-5.896h8.747H179.102z"/>
        <path d="M179.744,398.211c-0.1,2.013-0.319,3.975-0.642,5.896h-6.846H98.608h-6.893h-9.094
                c-0.32-1.921-0.538-3.883-0.637-5.896H179.744z"/>
    <path d="M177.86,381.364c-2.232-7.626-6.376-14.474-12.441-20.54c-7.609-7.609-16.488-12.174-26.625-13.71
        c-2.564-0.389-5.205-0.593-7.932-0.593c-13.502,0-25.049,4.769-34.65,14.303c-6.025,6.066-10.141,12.914-12.357,20.54H177.86z"/>
    <path d="M79.078,395.475c0-25.824,19.395-47.281,44.626-51.055c-0.626-0.023-1.255-0.048-1.887-0.048
                c-28.314,0-51.269,22.88-51.269,51.103c0,28.224,22.954,51.104,51.269,51.104c0.634,0,1.263-0.025,1.891-0.048
                C98.473,442.758,79.078,421.3,79.078,395.475z"/>
  </g>
</svg>
