<!-- Gnu Emacs Icon

   Copyright (C) 2008, 2009
   Free Software Foundation, Inc.

   This file is part of GNU Emacs.

   GNU Emacs is free software: you can redistribute it and/or modify
   it under the terms of the GNU General Public License as published by
   the Free Software Foundation; either version 3 of the License, or
   (at your option) any later version.

   GNU Emacs is distributed in the hope that it will be useful,
   but WITHOUT ANY WARRANTY; without even the implied warranty of
   MERCHANTABILITY or FITNESS FOR A PARTICULAR PURPOSE.  See the
   GNU General Public License for more details.

   You should have received a copy of the GNU General Public License
   along with GNU Emacs.  If not, see <http://www.gnu.org/licenses/>.

-->

<!-- Created with Inkscape (http://www.inkscape.org/) -->

<svg xmlns="http://www.w3.org/2000/svg" viewBox="0 0 474 479">
  <path style="fill:#ffffff;fill-opacity:1;fill-rule:evenodd;stroke:#000000;stroke-width:0;stroke-linecap:butt;stroke-linejoin:miter;stroke-miterlimit:4;stroke-dasharray:none;stroke-opacity:1" d="m 120.52728,395.60181 c 0,0 21.0078,6.09989 48.97166,9.58704 11.32467,1.41221 54.41295,6.34818 87.44939,6.21863 0,0 40.23552,0.0457 62.44534,-3.10931 23.23898,-3.30118 36.40486,-7.51418 43.73209,-15.92171 0.19087,-2.00464 3.53663,-8.53911 -5.49654,-14.84065 -23.09426,-16.11057 -52.94998,-20.52042 -110.9411,-34.29249 -64.127,-16.1227 -83.29128,-31.56149 -92.8653,-42.73463 -9.07685,-11.19791 1.70382,-34.45383 53.37652,-45.86235 26.16241,-6.36659 123.60277,-7.5364 123.60277,-7.5364 -27.95505,-22.19469 -80.43759,-61.93067 -91.16526,-70.38102 -9.40866,-7.41134 -24.57035,-18.78483 -26.20016,-28.94842 -2.19861,-9.89378 13.37492,-14.65745 21.61972,-15.2071 26.56661,-1.83218 62.84376,1.28253 95.09012,7.69516 16.20882,3.22335 19.05466,2.74827 19.05466,2.74827 23.08547,1.09931 41.04083,-10.99307 40.12474,-36.46038 -0.18322,-25.833726 -26.01233,-46.548603 -54.59895,-47.453444 -26.92018,-0.852094 -93.25794,3.847576 -93.25794,3.847576 77.31798,15.939963 89.95772,20.007744 93.99081,29.314873 2.38183,5.49654 -3.9787,10.961515 -25.28408,9.893765 -23.19489,-1.16245 -70.72213,-6.77906 -70.72213,-6.77906 -45.25483,-6.962282 -76.76832,-13.558129 -90.50967,4.397231 -8.97739,11.730469 1.28253,26.016949 5.31332,34.444969 17.95537,31.33028 49.00385,52.82523 68.70674,67.97387 7.41341,5.69982 30.04774,18.32179 30.04774,18.32179 -70.35569,-19.23789 -126.42038,-8.42803 -161.964666,10.2602 -40.857604,24.18477 -33.868518,64.9968 30.963836,103.15172 38.29255,22.5358 57.35854,33.36185 120.05537,41.05922 36.6472,5.84342 42.10791,8.23438 41.82939,11.28471 -0.39214,4.29458 -43.37561,5.92204 -55.19029,6.73685 -30.05668,2.07287 -107.78947,2.59109 -108.17813,2.59109 z m 352.73334,-156.2514 c 0,131.79436 -105.75999,238.63481 -236.22154,238.63481 C 106.57753,477.98522 0.81753439,371.14477 0.81753439,239.35041 0.81753439,107.55604 106.57753,0.71560551 237.03908,0.71560551 c 130.46155,0 236.22154,106.84043449 236.22154,238.63480449 z" />
</svg>