<svg xmlns="http://www.w3.org/2000/svg" viewBox="0 0 48 48">
  <g fill="#ffffff">
  <path
     d="m 41.4,2.5 c 0.2,0 0.4,0 0.5,0 0.4,0.1 1,0.4 1.3,1 l 0,0 0,0 c 0.2,0.3 0.2,0.7 0.2,1.2 l 0,0.1 c 0,5.8 0,11.7 0,17.4 l 0,5.1 c 0,1.4 0,2.7 0,4.1 0,2.5 0,5.1 -0.1,7.6 -0.1,0.8 -0.9,1.4 -1.6,1.4 -3.7,0 -7.5,0 -11.2,0 l -7.5,0 -7.5,0 -9.1,0 C 5.6,40.4 4.7,39.7 4.5,38.9 4.4,38.3 4.4,37.7 4.4,37.1 c 0,-0.4 0,-0.8 0,-1.2 l 0,-7.4 c 0,-7.6 0,-15.6 0,-23.4 0,-0.8 0,-1.4 0.3,-1.8 0.5,-0.5 1.1,-0.8 1.6,-0.8 4,0 8,0 12,0 l 8.4,0 8.4,0 5.2,0 0.2,0 c 0.1,0 0.3,0 0.4,0 0.3,0 0.4,0 0.5,0 m 0,-1 c -0.2,0 -0.5,0 -0.7,0 0,0 -0.1,0 -0.1,0 -1.7,0 -3.5,0 -5.2,0 -5.6,0 -11.1,0 -16.7,0 -4,0 -8,0 -12,0 -1,0 -1.9,0.5 -2.5,1.1 -0.6,0.7 -0.6,1.7 -0.6,2.5 0,10.3 0,20.5 0,30.8 0,1.1 -0.1,2.1 0.1,3.2 0.3,1.3 1.5,2.3 2.8,2.3 0,0 0,0 0,0 3,0 6.1,0 9.1,0 5,0 10,0 14.9,0 3.7,0 7.5,0 11.2,0 1.3,0 2.4,-1.1 2.6,-2.3 0.1,-3.9 0,-7.8 0.1,-11.8 0,-7.5 0,-15 0,-22.5 0,-0.6 0,-1.3 -0.3,-1.8 -0.4,-0.8 -1.2,-1.3 -2,-1.5 -0.2,0 -0.4,0 -0.7,0 l 0,0 z" />
  <path
     d="M18.9,11.6c1.6-1.9,4.3-2.5,6.7-2.2c1.9,0.2,3.6,1.1,5,2.4c-0.7,0.9-1.5,1.8-2.2,2.7 c-1.4-1.1-3.2-1.8-4.9-1.4c-0.8,0.1-1.5,0.9-1.4,1.7c0.1,0.8,0.8,1.2,1.4,1.5c1.4,0.6,2.9,1.2,4.4,1.8c1.2,0.5,2.3,1.4,2.9,2.6 c0.8,1.8,0.6,4-0.6,5.6c-0.9,1.2-2.3,2-3.7,2.4c-3.3,0.8-7-0.1-9.4-2.4c0-0.2,0.2-0.3,0.3-0.5c0.7-0.8,1.4-1.7,2.1-2.5 c1.4,1.2,3.2,2.1,5,2c0.9,0,2-0.3,2.2-1.3c0.3-0.8-0.2-1.7-0.9-2c-1.6-0.8-3.2-1.4-4.8-2.1c-1.1-0.6-2.2-1.4-2.7-2.6 C17.3,15.6,17.5,13.2,18.9,11.6z" />
  <path
     d="m 1.38,42 c 0.7,1.6 2.2,3.2 4.1,3.1 l 38,0 c 0.7,0 1.5,0.1 2.1,-0.4 0.8,-0.6 1.1,-1.5 1.2,-2.4 l 0,1.4 c -0.2,1.1 -0.691011,2.237079 -1.791011,2.637079 C 44.388989,46.437079 43.88,46.4 43.28,46.4 l -37.3,0 c -0.6,0 -1.2629205,0.06405 -1.7988751,-0.191011 C 2.8350568,45.492137 1.68,44.4 1.38,42.9 Z" />
  <path
     d="m 44.4,4.8 c 0.5,0 1,0 1.5,0.3 0.5,0.3 0.7,0.8 0.9,1.3 l 0,36 c -0.2,0.9 -0.5,1.8 -1.2,2.4 -0.6,0.5 -1.4,0.3 -2.1,0.4 l -38,0 C 3.6,45.2 2.1,43.7 1.4,42.1 L 1.4,7 C 1.8,6 2.7,5.3 3.8,5.2 l 0,30.8 c 0,1.1 -0.1,2.1 0.1,3.2 0.3,1.3 1.5,2.14 2.9,2.14 l 35.2,0 c 0.949443,0 2.136652,-1.294081 2.28,-2.14 0.0091,-0.674658 -0.0066,-23.741704 0.12,-34.4 z" />
  </g>
</svg>
