<svg
   xmlns="http://www.w3.org/2000/svg" viewBox="0 0 544 544">
  <path
     style="fill:none;fill-opacity:0.94117647;stroke:#ffffff;stroke-width:12;stroke-linecap:butt;stroke-linejoin:miter;stroke-miterlimit:4;stroke-dasharray:none;stroke-opacity:1"
     d="M 272.62392,14.1466 14.146603,272.97132 271.54694,530.71762 530.02427,271.89289 272.62392,14.1466 Z" />
  <path
     style="fill:#ffffff;fill-opacity:1;stroke:none;stroke-width:18.91431427;stroke-linecap:butt;stroke-linejoin:miter;stroke-miterlimit:4;stroke-dasharray:none;stroke-opacity:1"
     d="m 63.582026,42.24609 -8.37109,9.08203 0,32.83399 7.67383,7.68359 20.9668,0 0,373.49024 12.51953,7.23828 43.253904,0 94.45312,-97.00977 c -0.0344,-0.62082 0.0107,-1.24748 0.16407,-1.86328 l 0.004,-0.01 2.80274,-11.14844 c 0,-0.001 0.004,-7.4e-4 0.004,-0.002 l 0,-0.006 c 0.60752,-2.41713 2.64673,-4.57217 5.61133,-5.20899 l 0.3418,-0.0723 0.34375,-0.0371 c 0.27179,-0.0277 0.54617,-0.041 0.82031,-0.041 0.0653,0 0.13008,0.008 0.19531,0.01 l 7.60743,0 16.33984,-16.78125 -2.63867,-2.63868 -0.0137,-0.0176 c -1.92387,-1.95921 -2.43555,-4.52929 -1.57813,-6.91993 l 7.29102,-20.43554 c 0.35602,-1.09473 0.99948,-2.11807 1.93554,-2.96875 l 0.0566,-0.0508 7.34571,-6.31641 c 0.94631,-0.83363 2.16003,-1.45927 3.51367,-1.74219 l 0.32227,-0.0664 0.32617,-0.0352 c 0.27177,-0.0277 0.54617,-0.041 0.82031,-0.041 0.0581,0 0.11577,0.007 0.17383,0.008 l 20.93554,0 -0.10742,0.004 c 0.54892,-0.009 1.09002,0.0408 1.61524,0.14063 l 211.5332,-217.25781 0,-30.73829 -8.37109,-8.38281 -168.13282,0 -8.37304,7.6836 0,32.83398 9.07031,9.7793 25.8125,0 -156.27344,154.38867 0,-154.38867 18.13867,0 8.02344,-9.7793 0,-31.08789 -10.11523,-10.12891 -166.041024,0 z m 244.728524,257.07813 -39.99805,41.08008 3.03125,3.03515 0.0391,0.0371 c 1.37391,1.32196 3.39497,2.15889 5.52735,2.12305 l -0.10743,0.004 22.66211,0 -0.10742,-0.004 c 2.13241,0.0358 4.15342,-0.80108 5.52735,-2.12305 l 0.0488,-0.0469 5.95899,-6.00781 -0.0137,0.008 c 0.85957,-0.86253 1.44098,-1.87637 1.74804,-2.94922 l 6.29493,-21.62695 c 0.67357,-2.30722 0.1068,-4.7363 -1.74805,-6.58985 l -4.91211,-4.91797 -0.0371,-0.0391 c -1.02024,-0.98164 -2.39898,-1.69444 -3.91406,-1.98242 z m -56.33789,57.86133 -17.89454,18.3789 c 0.19023,3.4277 3.10877,6.66037 7.41211,6.69141 l 0.0254,0 5.43165,0 -30.67188,87.68555 -0.0117,0.0332 c -1.38358,4.13098 1.77317,9.00165 7.07813,9.05664 l 0.0332,0 48.16211,0 -0.0937,-0.002 c 3.49758,0.0498 6.37948,-2.19322 7.2832,-4.91407 l 0.0156,-0.0469 3.16797,-10.21289 0.004,-0.01 c 1.26264,-4.13208 -1.99191,-8.92687 -7.26953,-8.89062 l -2.95703,0 30.38086,-88.69531 0.006,-0.0176 c 1.38356,-4.131 -1.77318,-9.00165 -7.07813,-9.05664 l -0.0332,0 -42.99023,0 z m 145.3457,0.33593 c -0.27339,0 -0.54853,0.0133 -0.82031,0.041 l -0.32227,0.0332 -0.3164,0.0684 c -1.73756,0.35984 -3.22351,1.27358 -4.24219,2.4668 l -8.21289,9.28711 -10.52344,0 -8.88867,-9.22656 -0.006,-0.006 c -1.33338,-1.37813 -3.34214,-2.29004 -5.50391,-2.3086 l -0.0273,0 -38.06446,0 -0.006,0 c -3.37305,0.008 -6.14508,2.14044 -7.08985,4.74805 l -0.0215,0.0566 -3.51367,10.51758 c -1.38133,4.13042 1.77236,8.99971 7.07617,9.05469 l 0.0332,0 2.36719,0 -29.37305,86.67382 -0.004,0.008 c -1.38357,4.13098 1.77318,9.0036 7.07812,9.05859 l 0.0332,0 40.52735,0 0.01,0 c 3.37306,-0.008 6.14315,-2.14044 7.08789,-4.74805 l 0.0156,-0.043 3.12695,-9.17773 0.006,-0.0117 c 1.33234,-3.978 -1.60268,-8.54055 -6.55469,-8.92969 l 16.89258,-53.24804 24.5332,0 -20.96289,67.25586 -0.006,0.01 c -1.26265,4.1321 1.9919,8.92882 7.26954,8.89258 l 39.04687,0 0.0234,0 c 3.20131,-0.0247 5.87268,-1.96992 6.91015,-4.41016 l 0.01,-0.0137 3.51953,-8.44336 0.0156,-0.041 c 1.60257,-4.04518 -1.31023,-8.86559 -6.41797,-9.27344 l 17.23633,-54.32227 22.74023,0 -21.28125,67.59375 -0.008,0.0176 c -1.26266,4.1321 1.99385,8.92882 7.27148,8.89258 l 42.8125,0 c 3.32272,0.0243 6.1002,-2.02843 7.10352,-4.58008 l 0.008,-0.0176 3.51758,-9.17773 0.0156,-0.0391 c 1.52816,-4.18696 -1.68045,-9.21649 -7.08984,-9.22461 l -0.004,0 -0.86718,0 23.77148,-77.29297 0,-0.004 c 0.66803,-2.05105 0.33435,-4.21406 -1.03516,-6.0332 l -8.05273,-10.8418 -0.0449,-0.0566 c -1.36659,-1.73401 -3.71804,-2.9139 -6.25977,-2.84765 l 0.16602,-0.002 -30.68946,0 0.10352,0.002 c -2.23228,-0.0374 -4.33018,0.88317 -5.70703,2.30664 l -0.0606,0.0586 -7.98437,8.7832 -11.47266,0 -8.32812,-9.13086 -0.0547,-0.0566 c -1.37687,-1.42343 -3.47868,-2.34397 -5.71094,-2.30664 l 0.10547,-0.002 -24.71094,0 c -0.0652,-0.002 -0.13006,-0.01 -0.19531,-0.01 z" />
</svg>
